<svg xmlns="http://www.w3.org/2000/svg" viewBox="0 0 390.39 268.04"><defs><style>.cls-1{fill:#113454;}.cls-2{fill:#40b34b;}.cls-3{fill:#123454;}</style></defs><g id="Layer_2" data-name="Layer 2"><g id="Layer_1-2" data-name="Layer 1"><path class="cls-1" d="M174.48,58.57h43.7a180.19,180.19,0,0,1-.83,18.08A64.46,64.46,0,0,1,214,91.75a60.16,60.16,0,0,1-9.46,17.34,55.18,55.18,0,0,1-14,12.61,65.88,65.88,0,0,1-17.67,7.71,75.73,75.73,0,0,1-20.24,2.66A71.27,71.27,0,0,1,126,127.26a60.05,60.05,0,0,1-20.65-13.53,61.06,61.06,0,0,1-13.44-20.9,72.83,72.83,0,0,1-4.81-27,73.57,73.57,0,0,1,4.72-26.8,59,59,0,0,1,13.44-20.82,61.12,61.12,0,0,1,21-13.44A74.63,74.63,0,0,1,153.63,0Q173.22,0,188,8.46t23.4,26.22L180.52,47.45q-4.32-10.29-11.2-14.76a28.12,28.12,0,0,0-15.69-4.48,31.56,31.56,0,0,0-13.27,2.73,28.87,28.87,0,0,0-10.2,7.8,37.62,37.62,0,0,0-6.64,12.2,49.69,49.69,0,0,0-2.4,15.92,50.51,50.51,0,0,0,2.07,14.77,33.52,33.52,0,0,0,6.22,11.78,28,28,0,0,0,10.29,7.71A34.67,34.67,0,0,0,154,103.86a39.44,39.44,0,0,0,9.29-1.08,24.26,24.26,0,0,0,8-3.48,19.7,19.7,0,0,0,5.89-6.22,25,25,0,0,0,3.16-9.29H153.63Z"/><path class="cls-1" d="M303.28,45.29Q292,31.52,275.41,31.52a34.08,34.08,0,0,0-13.52,2.66,32.69,32.69,0,0,0-10.7,7.22,33.27,33.27,0,0,0-7.06,10.86,35.8,35.8,0,0,0-2.57,13.61,36.21,36.21,0,0,0,2.57,13.77A33.22,33.22,0,0,0,262,97.89a33.07,33.07,0,0,0,13.27,2.65q15.6,0,28-13.27v38.49L300,126.92a96.2,96.2,0,0,1-13.93,3.9,67.56,67.56,0,0,1-12.78,1.25,65.37,65.37,0,0,1-45.71-18.67A68.36,68.36,0,0,1,213,92.33a64.12,64.12,0,0,1-5.48-26.63,64,64,0,0,1,5.39-26.46A66.07,66.07,0,0,1,273.42,0,68.61,68.61,0,0,1,288.1,1.58a89.21,89.21,0,0,1,15.18,4.89Z"/><polygon class="cls-2" points="219.87 84.12 196.42 84.12 217.59 59.79 241.03 59.79 219.87 84.12"/><path class="cls-1" d="M30.39,210.15H43.82a14.38,14.38,0,0,1-5.34,9.77,16.21,16.21,0,0,1-10.78,4q-7,0-13.08-5.4a19.12,19.12,0,0,1-6.46-14.83A19.64,19.64,0,0,1,14,189.22a19.26,19.26,0,0,1,14.33-5.9q9.52,0,16.16,8.83l5.79-5.55A33.94,33.94,0,0,0,40,178.23a27.2,27.2,0,0,0-11.79-2.59,27.18,27.18,0,0,0-20,8.2,28.14,28.14,0,0,0-.14,39.57,26.24,26.24,0,0,0,19.36,8.16,24.41,24.41,0,0,0,19.09-8.44,22.78,22.78,0,0,0,4.71-8.1,36.85,36.85,0,0,0,1.43-10.74v-1.78H30.39Z"/><path class="cls-1" d="M84.78,202.33a15.27,15.27,0,0,0,3.28-9.84,14.74,14.74,0,0,0-5.23-11.79q-4.74-4-15.42-4H57.88v53.87H66V208.51h1.47l15.38,22.05h10l-16.68-23A14.59,14.59,0,0,0,84.78,202.33ZM66,201.43v-17.1h2.9q11.24,0,11.23,8.27,0,8.82-11.54,8.83Z"/><polygon class="cls-1" points="96.59 230.56 126.32 230.56 126.32 222.92 104.72 222.92 104.72 204.91 125.69 204.91 125.69 197.27 104.72 197.27 104.72 184.33 126.32 184.33 126.32 176.69 96.59 176.69 96.59 230.56"/><polygon class="cls-1" points="132.43 230.56 162.16 230.56 162.16 222.92 140.56 222.92 140.56 204.91 161.53 204.91 161.53 197.27 140.56 197.27 140.56 184.33 162.16 184.33 162.16 176.69 132.43 176.69 132.43 230.56"/><polygon class="cls-1" points="208.04 214.13 168.75 173.03 168.75 230.56 176.88 230.56 176.88 192.84 216.17 233.84 216.17 176.69 208.04 176.69 208.04 214.13"/><path class="cls-1" d="M243.82,183.74a30,30,0,0,0-7.38,19.91,29,29,0,0,0,8.82,21.27,29.33,29.33,0,0,0,21.39,8.74,31.73,31.73,0,0,0,15.89-4.28V218.75a46.59,46.59,0,0,1-4.1,3.1,23.22,23.22,0,0,1-3.77,2.05,18.67,18.67,0,0,1-7.91,1.51,20.52,20.52,0,0,1-15.22-6.32,21.28,21.28,0,0,1-6.2-15.52,21.79,21.79,0,0,1,6.2-15.74,20.16,20.16,0,0,1,15.18-6.48q8.17,0,15.82,6.4V177.3A29.83,29.83,0,0,0,267.33,173Q252.9,173,243.82,183.74Z"/><polygon class="cls-1" points="323.18 197.02 297.97 197.02 297.97 174.16 289.15 174.16 289.15 232.6 297.97 232.6 297.97 205.31 323.18 205.31 323.18 232.6 332 232.6 332 174.16 323.18 174.16 323.18 197.02"/><rect class="cls-1" x="340.65" y="173.85" width="8.82" height="58.44"/><path class="cls-1" d="M385.36,179a15,15,0,0,0-6.66-3.86,45.19,45.19,0,0,0-11.09-1h-10V232.6h8.82V208.87h4.09q9.12,0,14.5-4.69t5.37-12.72A16.66,16.66,0,0,0,385.36,179Zm-15.64,21.65h-3.29V182.3h2.92q12.52,0,12.52,9Q381.87,200.7,369.72,200.69Z"/><path class="cls-3" d="M18.15,249.51v3.29a7.69,7.69,0,0,0-5-2,6.35,6.35,0,0,0-4.78,2,6.87,6.87,0,0,0-1.95,4.95,6.73,6.73,0,0,0,2,4.89,6.49,6.49,0,0,0,4.79,2,5.82,5.82,0,0,0,2.49-.48,7.36,7.36,0,0,0,1.19-.64,13.78,13.78,0,0,0,1.29-1v3.35a10.11,10.11,0,0,1-5,1.34,9.23,9.23,0,0,1-6.73-2.75,9.09,9.09,0,0,1-2.78-6.7A9.42,9.42,0,0,1,6,251.54a9.26,9.26,0,0,1,7.4-3.37A9.46,9.46,0,0,1,18.15,249.51Z"/><path class="cls-3" d="M20.62,257.64A9,9,0,0,1,23.46,251a9.38,9.38,0,0,1,6.82-2.79,9.61,9.61,0,0,1,9.56,9.57A9.06,9.06,0,0,1,37,264.48a9.73,9.73,0,0,1-13.27.31A9.05,9.05,0,0,1,20.62,257.64Zm2.8,0a6.66,6.66,0,0,0,2,5,6.77,6.77,0,0,0,9.59,0,7.14,7.14,0,0,0,0-9.86,6.51,6.51,0,0,0-4.84-2,6.58,6.58,0,0,0-4.85,2A6.67,6.67,0,0,0,23.42,257.67Z"/><path class="cls-3" d="M43.34,266.92V247.27l13.41,14V248.52h2.78V268L46.11,254v12.88Z"/><path class="cls-3" d="M74.33,251.26l-2.25,1.34a3.86,3.86,0,0,0-1.2-1.43,2.77,2.77,0,0,0-1.54-.38,2.88,2.88,0,0,0-1.92.65,2.06,2.06,0,0,0-.76,1.62c0,.9.67,1.62,2,2.17l1.84.75a7.88,7.88,0,0,1,3.27,2.21,5,5,0,0,1,1,3.2,5.6,5.6,0,0,1-1.69,4.19,5.79,5.79,0,0,1-4.23,1.67,5.64,5.64,0,0,1-4-1.42,6.49,6.49,0,0,1-1.91-4l2.81-.62a4.77,4.77,0,0,0,.67,2.24,3.15,3.15,0,0,0,4.65.33,3.27,3.27,0,0,0,.71-3.19,2.47,2.47,0,0,0-.46-.82,3.65,3.65,0,0,0-.82-.71,8.69,8.69,0,0,0-1.19-.62l-1.77-.74q-3.78-1.59-3.78-4.67a4.46,4.46,0,0,1,1.58-3.47,5.77,5.77,0,0,1,4-1.4A5.49,5.49,0,0,1,74.33,251.26Z"/><path class="cls-3" d="M83.58,251.13v15.79H80.8V251.13H76.57v-2.61H87.8v2.61Z"/><path class="cls-3" d="M96.5,259.08l5.7,7.84H98.8l-5.25-7.53h-.5v7.53H90.27v-18.4h3.26q3.64,0,5.26,1.37a5,5,0,0,1,1.79,4,5.22,5.22,0,0,1-1.12,3.36A5,5,0,0,1,96.5,259.08ZM93.05,257h.88q3.94,0,3.95-3c0-1.88-1.28-2.83-3.84-2.83h-1Z"/><path class="cls-3" d="M107.46,248.52V259.6a6.08,6.08,0,0,0,.78,3.47,4.14,4.14,0,0,0,6.52,0,6.06,6.06,0,0,0,.77-3.47V248.52h2.78v11.85a6.81,6.81,0,1,1-13.62,0V248.52Z"/><path class="cls-3" d="M136.31,249.51v3.29a7.73,7.73,0,0,0-5-2,6.35,6.35,0,0,0-4.78,2,6.87,6.87,0,0,0-2,4.95,6.73,6.73,0,0,0,2,4.89,6.48,6.48,0,0,0,4.79,2,5.82,5.82,0,0,0,2.49-.48,7.36,7.36,0,0,0,1.19-.64,15.23,15.23,0,0,0,1.29-1v3.35a10.12,10.12,0,0,1-5,1.34,9.26,9.26,0,0,1-6.73-2.75,9.12,9.12,0,0,1-2.77-6.7,9.42,9.42,0,0,1,2.32-6.26,9.24,9.24,0,0,1,7.4-3.37A9.46,9.46,0,0,1,136.31,249.51Z"/><path class="cls-3" d="M144.89,251.13v15.79h-2.78V251.13h-4.23v-2.61H149.1v2.61Z"/><path class="cls-3" d="M154.36,248.52v18.4h-2.78v-18.4Z"/><path class="cls-3" d="M157.86,257.64a9,9,0,0,1,2.85-6.67,9.36,9.36,0,0,1,6.81-2.79,9.63,9.63,0,0,1,9.57,9.57,9.07,9.07,0,0,1-2.84,6.73,9.73,9.73,0,0,1-13.27.31A9.05,9.05,0,0,1,157.86,257.64Zm2.8,0a6.81,6.81,0,0,0,11.64,5,7.13,7.13,0,0,0,0-9.86,6.86,6.86,0,0,0-9.68,0A6.64,6.64,0,0,0,160.66,257.67Z"/><path class="cls-3" d="M180.58,266.92V247.27l13.41,14V248.52h2.78V268l-13.42-14v12.88Z"/><path class="cls-3" d="M222.3,249.51v3.29a7.71,7.71,0,0,0-5-2,6.35,6.35,0,0,0-4.78,2,6.87,6.87,0,0,0-1.95,4.95,6.73,6.73,0,0,0,1.95,4.89,6.48,6.48,0,0,0,4.79,2,5.82,5.82,0,0,0,2.49-.48,7.36,7.36,0,0,0,1.19-.64,13.78,13.78,0,0,0,1.29-1v3.35a10.11,10.11,0,0,1-5,1.34,9.27,9.27,0,0,1-6.74-2.75,9.12,9.12,0,0,1-2.77-6.7,9.42,9.42,0,0,1,2.32-6.26,9.24,9.24,0,0,1,7.4-3.37A9.46,9.46,0,0,1,222.3,249.51Z"/><path class="cls-3" d="M224.77,257.64a9,9,0,0,1,2.84-6.67,9.37,9.37,0,0,1,6.82-2.79,9.61,9.61,0,0,1,9.56,9.57,9.06,9.06,0,0,1-2.83,6.73,9.73,9.73,0,0,1-13.27.31A9.05,9.05,0,0,1,224.77,257.64Zm2.79,0a6.67,6.67,0,0,0,2.05,5,6.77,6.77,0,0,0,9.59,0,7.14,7.14,0,0,0,0-9.86,6.51,6.51,0,0,0-4.84-2,6.8,6.8,0,0,0-6.83,6.88Z"/><path class="cls-3" d="M246.84,266.92l3.87-19.78,6.32,14.3,6.54-14.3,3.48,19.78H264.2l-1.78-11.1L257,267.76l-5.29-12-2,11.12Z"/><path class="cls-3" d="M273.72,259.45v7.47h-2.78v-18.4h3.15a13.86,13.86,0,0,1,3.49.33,4.66,4.66,0,0,1,2.09,1.21,5.23,5.23,0,0,1,1.59,3.91,5,5,0,0,1-1.69,4,6.68,6.68,0,0,1-4.57,1.48Zm0-2.57h1q3.83,0,3.83-2.95c0-1.89-1.32-2.84-3.94-2.84h-.92Z"/><path class="cls-3" d="M293.58,262.45H285.7l-2.05,4.47h-3l9.11-19.55,8.78,19.55h-3Zm-1.13-2.61-2.73-6.25-2.86,6.25Z"/><path class="cls-3" d="M300.84,266.92V247.27l13.42,14V248.52H317V268l-13.42-14v12.88Z"/><path class="cls-3" d="M325.16,259l-6-10.45h3.19l4.2,7.35,4.22-7.35H334l-6,10.45v7.95h-2.78Z"/><path class="cls-3" d="M346.39,248.52v15.79h5.41v2.61h-8.19v-18.4Z"/><path class="cls-3" d="M358.32,251.13v15.79h-2.78V251.13h-4.23v-2.61h11.22v2.61Z"/><path class="cls-3" d="M365,266.92v-18.4h3.86a14.16,14.16,0,0,1,4.38.55,8.21,8.21,0,0,1,3.14,1.83,9.49,9.49,0,0,1-.12,13.68,8.53,8.53,0,0,1-3.12,1.83,14.3,14.3,0,0,1-4.33.51Zm2.78-2.61H369a10.57,10.57,0,0,0,3.11-.39,6.75,6.75,0,0,0,2.26-11.11,7.67,7.67,0,0,0-5.37-1.68h-1.25Z"/><path class="cls-3" d="M382.63,265.58a1.55,1.55,0,0,1,.49-1.15,1.65,1.65,0,0,1,2.82,1.17,1.62,1.62,0,0,1-1.65,1.65,1.62,1.62,0,0,1-1.66-1.67Z"/></g></g></svg>